<svg xmlns="http://www.w3.org/2000/svg" width="900" height="600" viewBox="0 0 900 600">
  <defs>
    <linearGradient id="g" x1="0" y1="0" x2="1" y2="1">
      <stop offset="0" stop-color="#0b1220"/>
      <stop offset="0.6" stop-color="#1b2a6b"/>
      <stop offset="1" stop-color="#764ba2"/>
    </linearGradient>
    <linearGradient id="pin" x1="0" y1="0" x2="1" y2="1">
      <stop offset="0" stop-color="#F27121"/>
      <stop offset="1" stop-color="#F9A826"/>
    </linearGradient>
  </defs>
  <rect x="54" y="58" width="792" height="484" rx="28" fill="url(#g)" opacity="0.16"/>

  <g transform="translate(120 120)">
    <rect x="0" y="0" width="660" height="360" rx="26" fill="#ffffff" opacity="0.92"/>
    <rect x="24" y="24" width="612" height="312" rx="20" fill="rgba(17,24,39,0.06)"/>

    <g transform="translate(330 170)">
      <path d="M0 -80c-44 0-80 36-80 80 0 64 80 150 80 150s80-86 80-150c0-44-36-80-80-80z" fill="url(#pin)"/>
      <circle cx="0" cy="0" r="34" fill="rgba(255,255,255,0.78)"/>
      <circle cx="0" cy="0" r="14" fill="rgba(17,24,39,0.25)"/>
    </g>

    <g opacity="0.9">
      <path d="M120 248c60-90 160-90 220 0s160 90 220 0" fill="none" stroke="rgba(102,126,234,0.70)" stroke-width="12" stroke-linecap="round"/>
      <path d="M120 278c60-70 160-70 220 0s160 70 220 0" fill="none" stroke="rgba(118,75,162,0.55)" stroke-width="10" stroke-linecap="round"/>
    </g>

    <rect x="56" y="56" width="240" height="18" rx="9" fill="rgba(0,0,0,0.10)"/>
    <rect x="56" y="86" width="190" height="18" rx="9" fill="rgba(0,0,0,0.08)"/>
  </g>
</svg>

