<svg xmlns="http://www.w3.org/2000/svg" width="900" height="600" viewBox="0 0 900 600">
  <defs>
    <linearGradient id="g" x1="0" y1="0" x2="1" y2="1">
      <stop offset="0" stop-color="#667eea"/>
      <stop offset="1" stop-color="#764ba2"/>
    </linearGradient>
    <linearGradient id="sun" x1="0" y1="0" x2="1" y2="1">
      <stop offset="0" stop-color="#F9A826"/>
      <stop offset="1" stop-color="#F27121"/>
    </linearGradient>
  </defs>
  <rect width="900" height="600" rx="28" fill="rgba(255,255,255,0.0)"/>
  <rect x="54" y="58" width="792" height="484" rx="28" fill="url(#g)" opacity="0.14"/>

  <g transform="translate(110 120)">
    <rect x="0" y="0" width="680" height="360" rx="26" fill="#ffffff" opacity="0.92"/>
    <rect x="34" y="34" width="612" height="120" rx="18" fill="#111827" opacity="0.10"/>
    <circle cx="110" cy="230" r="58" fill="url(#sun)"/>
    <circle cx="110" cy="230" r="30" fill="rgba(255,255,255,0.25)"/>

    <path d="M220 260 C270 200, 330 300, 392 240 C454 180, 520 310, 610 210"
          fill="none" stroke="rgba(102,126,234,0.75)" stroke-width="12" stroke-linecap="round"/>
    <path d="M220 300 C280 250, 340 330, 408 280 C476 230, 548 340, 610 260"
          fill="none" stroke="rgba(118,75,162,0.55)" stroke-width="10" stroke-linecap="round"/>

    <rect x="34" y="176" width="260" height="18" rx="9" fill="rgba(0,0,0,0.08)"/>
    <rect x="34" y="206" width="220" height="18" rx="9" fill="rgba(0,0,0,0.07)"/>
  </g>
</svg>

